# File created by Blade
# Date/Time:  Thu Jan 22 19:08:58 2015
# Frame Rate: 120.000 fps
#------------------------------------------------------
:FULLY-SPECIFIED
:DEGREES
3546
root -2.778745 33.203892 -1.278324 8.315206 -1.244597 2.442582
RightUpLeg -3.319675 -10.439104 -2.080521
RightLeg -0.750581 -0.000000 0.000000
RightFoot -9.473702 -3.428196 3.835007
RightToeBase 5.424491 -0.000000 -0.000000
LeftUpLeg -3.780188 6.664624 3.545863
LeftLeg 1.094513 -0.000000 -0.000000
LeftFoot -7.667124 -1.353300 -12.251235
LeftToeBase 7.750776 -0.000000 -0.000000
Spine -7.884664 -1.677530 -0.719269
RightShoulder -17.263516 -14.075130 -29.146842
RightArm 29.971244 24.181522 35.762045
RightForeArm -11.328203 -0.000000 10.919892
RightHand 13.160684 0.000000 6.589071
RightHandThumb1 -24.326973 -0.000000 -32.862282
LeftShoulder -23.537502 7.169860 31.282942
LeftArm 24.393454 -23.781341 -36.590888
LeftForeArm 23.094051 -0.000000 1.033653
LeftHand -3.920009 -0.000000 -7.302318
LeftHandThumb1 -26.253704 0.000000 33.147579
Head -1.104291 8.179990 0.117838
3547
root -2.779450 33.203486 -1.276060 8.301360 -1.168675 2.446562
RightUpLeg -3.294310 -10.511239 -2.077164
RightLeg -0.736593 -0.000000 0.000000
RightFoot -9.493617 -3.433631 3.818882
RightToeBase 5.430460 -0.000000 -0.000000
LeftUpLeg -3.785668 6.649973 3.550690
LeftLeg 1.107435 -0.000000 -0.000000
LeftFoot -7.654757 -1.412887 -12.238166
LeftToeBase 7.706967 -0.000000 -0.000000
Spine -7.920475 -1.663855 -0.735677
RightShoulder -17.129223 -13.963914 -29.222725
RightArm 30.086937 24.081104 35.606554
RightForeArm -11.669062 -0.000000 10.922726
RightHand 13.164111 0.000000 7.060010
RightHandThumb1 -24.326973 -0.000000 -32.862282
LeftShoulder -23.371265 6.971869 31.326497
LeftArm 24.477322 -23.165547 -36.279982
LeftForeArm 22.972461 -0.000000 1.095700
LeftHand -4.073866 -0.000000 -7.405640
LeftHandThumb1 -26.253704 0.000000 33.147579
Head -1.173557 8.133625 0.099260
3548
root -2.779780 33.203123 -1.273364 8.288687 -1.094866 2.452239
RightUpLeg -3.258700 -10.532923 -2.081878
RightLeg -0.745524 -0.000000 0.000000
RightFoot -9.504818 -3.465411 3.838540
RightToeBase 5.439659 -0.000000 -0.000000
LeftUpLeg -3.783632 6.612249 3.555421
LeftLeg 1.108882 -0.000000 -0.000000
LeftFoot -7.648413 -1.445870 -12.239869
LeftToeBase 7.737386 -0.000000 -0.000000
Spine -7.959433 -1.630709 -0.753324
RightShoulder -16.987263 -13.805356 -29.248777
RightArm 30.010195 23.566964 35.051717
RightForeArm -11.442275 -0.000000 10.945385
RightHand 12.999627 0.000000 7.483779
RightHandThumb1 -24.326973 -0.000000 -32.862282
LeftShoulder -23.199764 6.779184 31.372527
LeftArm 24.674775 -22.816289 -36.110532
LeftForeArm 23.164978 -0.000000 1.047280
LeftHand -4.092293 -0.000000 -7.528409
LeftHandThumb1 -26.253704 0.000000 33.147579
Head -1.231511 8.041818 0.069005
3549
root -2.779973 33.202863 -1.270522 8.278261 -1.013575 2.452103
RightUpLeg -3.224076 -10.576891 -2.077108
RightLeg -0.750364 -0.000000 0.000000
RightFoot -9.512624 -3.492751 3.838752
RightToeBase 5.407831 -0.000000 -0.000000
LeftUpLeg -3.791042 6.581601 3.561922
LeftLeg 1.125346 -0.000000 -0.000000
LeftFoot -7.653765 -1.480205 -12.227909
LeftToeBase 7.787769 -0.000000 -0.000000
Spine -8.002825 -1.604659 -0.766372
RightShoulder -16.884417 -13.709798 -29.317214
RightArm 30.144789 23.390700 34.864993
RightForeArm -11.738050 -0.000000 10.921864
RightHand 12.790375 -0.000000 7.669241
RightHandThumb1 -24.326973 -0.000000 -32.862282
LeftShoulder -23.036461 6.604396 31.417742
LeftArm 24.841555 -22.403513 -35.928204
LeftForeArm 23.336879 0.000000 1.081429
LeftHand -4.215300 -0.000000 -7.622792
LeftHandThumb1 -26.253704 0.000000 33.147579
Head -1.277820 7.913892 0.056524
3550
root -2.779980 33.202299 -1.268270 8.272241 -0.932006 2.454309
RightUpLeg -3.202362 -10.603668 -2.075799
RightLeg -0.740763 -0.000000 0.000000
RightFoot -9.539568 -3.539694 3.830023
RightToeBase 5.467298 -0.000000 -0.000000
LeftUpLeg -3.800962 6.557333 3.566820
LeftLeg 1.128624 -0.000000 -0.000000
LeftFoot -7.643504 -1.525819 -12.243032
LeftToeBase 7.776970 -0.000000 -0.000000
Spine -8.047324 -1.588043 -0.781904
RightShoulder -16.767051 -13.565575 -29.366373
RightArm 30.160051 22.994670 34.475871
RightForeArm -11.731697 -0.000000 10.860061
RightHand 12.848413 -0.000000 7.900158
RightHandThumb1 -24.326973 -0.000000 -32.862282
LeftShoulder -22.892194 6.454449 31.451879
LeftArm 25.046428 -21.976159 -35.735832
LeftForeArm 23.378515 -0.000000 1.091537
LeftHand -4.326506 -0.000000 -7.692467
LeftHandThumb1 -26.253704 0.000000 33.147579
Head -1.334779 7.824820 0.055252
3551
root -2.780699 33.201883 -1.264556 8.254416 -0.842595 2.459602
RightUpLeg -3.162624 -10.613980 -2.080435
RightLeg -0.731906 -0.000000 0.000000
RightFoot -9.565173 -3.596742 3.863556
RightToeBase 5.412749 -0.000000 -0.000000
LeftUpLeg -3.795595 6.518924 3.574204
LeftLeg 1.124897 -0.000000 -0.000000
LeftFoot -7.619094 -1.570543 -12.224527
LeftToeBase 7.748302 -0.000000 -0.000000
Spine -8.086891 -1.571687 -0.811370
RightShoulder -16.633830 -13.444570 -29.371497
RightArm 30.135379 22.614678 34.042773
RightForeArm -11.657319 -0.000000 10.824121
RightHand 12.917398 0.000000 8.029790
RightHandThumb1 -24.326973 -0.000000 -32.862282
LeftShoulder -22.713426 6.284449 31.515797
LeftArm 25.219774 -21.674735 -35.607486
LeftForeArm 23.529805 -0.000000 1.125451
LeftHand -4.445956 -0.000000 -7.845843
LeftHandThumb1 -26.253704 0.000000 33.147579
Head -1.361728 7.735444 0.078235
3552
root -2.780985 33.201672 -1.261074 8.227220 -0.754414 2.466092
RightUpLeg -3.114365 -10.623278 -2.088350
RightLeg -0.725996 -0.000000 0.000000
RightFoot -9.596800 -3.658527 3.864898
RightToeBase 5.510654 -0.000000 -0.000000
LeftUpLeg -3.782139 6.492123 3.577758
LeftLeg 1.127537 -0.000000 -0.000000
LeftFoot -7.605759 -1.614224 -12.204560
LeftToeBase 7.773466 -0.000000 -0.000000
Spine -8.113426 -1.564291 -0.827966
RightShoulder -16.531977 -13.389608 -29.448793
RightArm 30.315826 22.621298 34.010132
RightForeArm -12.052066 -0.000000 10.754890
RightHand 12.939580 -0.000000 8.214325
RightHandThumb1 -24.326973 -0.000000 -32.862282
LeftShoulder -22.554370 6.121839 31.556595
LeftArm 25.412310 -21.366473 -35.457521
LeftForeArm 23.680792 -0.000000 1.073401
LeftHand -4.272179 0.000000 -8.024148
LeftHandThumb1 -26.253704 0.000000 33.147579
Head -1.391611 7.672256 0.054386
